<?xml version="1.0" standalone="no"?>
<!DOCTYPE svg PUBLIC "-//W3C//DTD SVG 20010904//EN"
 "http://www.w3.org/TR/2001/REC-SVG-20010904/DTD/svg10.dtd">
<svg version="1.0" xmlns="http://www.w3.org/2000/svg"
 width="385.000000pt" height="289.000000pt" viewBox="0 0 385.000000 289.000000"
 preserveAspectRatio="xMidYMid meet">

<g transform="translate(0.000000,289.000000) scale(0.100000,-0.100000)"
fill="#000000" stroke="none">
<path d="M0 2760 c0 -121 1 -130 19 -130 10 0 22 -7 25 -16 9 -22 8 -24 -9
-24 -8 0 -15 5 -15 11 0 5 -4 7 -10 4 -6 -4 -10 -69 -10 -162 0 -148 1 -155
19 -150 15 4 20 -2 25 -26 7 -34 -10 -53 -31 -35 -10 8 -13 3 -13 -25 0 -19 7
-40 15 -47 19 -16 19 -30 0 -30 -13 0 -15 -125 -15 -1065 l0 -1065 1925 0
1925 0 0 1330 c0 1141 -2 1330 -14 1330 -8 0 -21 3 -30 6 -10 4 -16 1 -16 -9
0 -10 -8 -13 -25 -9 -14 2 -31 -1 -39 -7 -7 -6 -27 -8 -45 -5 -26 5 -31 11
-31 34 0 23 3 27 24 23 19 -4 24 0 30 27 10 53 7 80 -9 80 -8 0 -15 4 -15 9 0
5 9 7 19 4 13 -3 21 2 25 16 19 67 31 61 -116 60 -84 0 -126 -4 -113 -9 17 -7
17 -9 3 -9 -33 -2 -51 -58 -51 -162 0 -89 -1 -96 -19 -91 -10 2 -25 -1 -33 -8
-12 -10 -19 -10 -27 -2 -16 16 -43 15 -58 -3 -9 -11 -16 -12 -31 -2 -13 8 -24
9 -36 2 -33 -20 -116 -9 -184 23 -59 28 -71 30 -151 27 -48 -2 -92 -7 -99 -11
-7 -4 -46 -9 -87 -10 -70 -2 -102 -11 -74 -21 6 -3 12 -11 12 -19 0 -8 6 -11
15 -8 8 4 15 1 15 -6 0 -10 3 -10 15 0 12 10 13 16 3 29 -8 10 -4 9 10 -3 19
-17 22 -17 16 -3 -4 11 -1 17 9 17 8 0 15 -6 14 -12 -1 -30 4 -48 12 -48 5 0
7 10 5 23 -4 20 -4 20 5 2 13 -29 -5 -48 -30 -32 -14 9 -24 9 -37 0 -10 -6
-31 -9 -46 -6 -16 3 -31 1 -35 -6 -6 -8 -15 -9 -34 -2 -19 8 -28 6 -38 -5 -8
-10 -15 -12 -23 -4 -13 13 -46 13 -46 0 0 -7 -13 -8 -34 -5 -20 4 -36 2 -40
-4 -4 -6 -20 -8 -35 -5 -16 3 -31 2 -34 -3 -4 -6 -33 -9 -67 -7 -33 1 -63 -2
-66 -7 -3 -6 -19 -7 -34 -4 -15 3 -31 2 -34 -4 -4 -6 -20 -8 -36 -4 -18 3 -30
1 -30 -5 0 -7 -13 -9 -35 -5 -23 4 -35 2 -35 -6 0 -9 -5 -9 -21 -1 -15 8 -24
8 -34 0 -7 -6 -24 -8 -38 -5 -14 4 -28 2 -32 -5 -5 -8 -10 -8 -20 0 -9 8 -20
8 -32 2 -10 -6 -30 -8 -44 -5 -15 3 -30 0 -33 -6 -4 -5 -13 -8 -21 -4 -8 3
-23 2 -32 -2 -10 -4 -43 -9 -73 -10 -30 -1 -55 -3 -55 -5 0 -1 -22 -4 -50 -5
-27 -1 -58 -6 -67 -10 -9 -4 -22 -4 -28 0 -5 3 -15 3 -22 -1 -6 -4 -44 -8 -82
-9 -39 -1 -88 -9 -108 -18 -34 -14 -39 -14 -53 0 -9 8 -22 12 -30 9 -8 -3 -15
-1 -15 5 0 6 -9 8 -20 4 -12 -4 -20 -2 -20 5 0 7 -6 10 -14 7 -7 -3 -18 -1
-23 4 -5 5 -24 11 -41 12 -18 1 -32 5 -32 10 0 4 -11 7 -25 7 -14 0 -25 4 -25
9 0 5 -9 7 -20 4 -12 -3 -20 0 -20 7 0 7 -8 10 -20 7 -11 -3 -23 -1 -26 4 -3
6 -14 7 -25 4 -11 -4 -19 -2 -19 5 0 8 -8 10 -21 7 -12 -3 -22 0 -26 9 -4 10
-10 11 -24 3 -15 -8 -19 -6 -19 6 0 13 -6 15 -31 10 -24 -5 -30 -4 -24 5 6 10
1 11 -17 7 -19 -5 -28 -2 -32 9 -4 10 -13 13 -26 9 -11 -4 -20 -2 -20 4 0 6
-11 11 -25 11 -19 0 -31 10 -46 35 -24 40 -31 42 -57 15 l-19 -20 -18 20 c-10
11 -24 20 -31 20 -15 0 -44 27 -44 41 0 5 14 2 30 -6 31 -16 56 -12 44 6 -3 6
-17 14 -30 19 -13 5 -24 13 -24 18 0 17 61 53 80 47 10 -3 22 -1 25 6 6 8 9 8
15 -1 5 -8 14 -2 29 19 12 17 17 31 11 31 -6 0 -9 4 -5 9 3 5 -4 12 -15 16
-11 3 -25 15 -30 26 -10 18 -23 19 -225 19 l-215 0 0 -130z m3604 -136 c9 -8
16 -13 16 -9 0 3 9 1 21 -6 17 -9 20 -17 15 -42 -4 -17 -10 -35 -15 -40 -13
-13 -61 22 -61 44 0 22 11 24 28 7 7 -7 12 -8 12 -2 0 5 -14 18 -30 28 -17 9
-28 22 -25 27 9 13 21 11 39 -7z m-3502 -26 c-9 -9 -12 -7 -12 12 0 19 3 21
12 12 9 -9 9 -15 0 -24z m2738 -28 l20 -20 -30 0 c-32 0 -33 1 -24 24 8 20 10
20 34 -4z m120 -26 c0 -10 -13 -14 -40 -14 -36 0 -40 2 -31 18 12 22 71 18 71
-4z m806 -52 c-17 -16 -18 -16 -5 5 7 12 15 20 18 17 3 -2 -3 -12 -13 -22z
m-161 -80 c-14 -26 -37 -61 -50 -77 -22 -28 -24 -28 -25 -9 0 12 6 27 14 33 7
6 26 31 42 56 37 60 52 58 19 -3z m-177 -12 c13 -16 31 -30 42 -30 26 0 26
-20 0 -27 -11 -3 -17 -9 -14 -14 3 -5 0 -9 -6 -9 -6 0 -8 -11 -4 -27 6 -27 6
-27 -19 7 -14 19 -33 50 -41 68 -8 18 -22 35 -30 38 -23 9 -9 24 23 24 19 0
34 -9 49 -30z m-3264 -51 c-8 -14 -34 -11 -34 4 0 8 3 17 7 20 9 9 34 -13 27
-24z m3178 19 c-8 -8 -17 -8 -34 0 -22 10 -21 11 12 11 26 1 31 -2 22 -11z
m-3279 -38 c-7 -8 -22 24 -16 34 4 5 10 1 13 -10 4 -10 6 -21 3 -24z m424 34
c-3 -3 -12 -4 -19 -1 -8 3 -5 6 6 6 11 1 17 -2 13 -5z m2893 -29 c11 -13 8
-15 -21 -15 -32 1 -33 1 -15 15 24 18 21 18 36 0z m-3188 -20 c-5 -29 18 -32
30 -5 5 12 7 12 7 -2 1 -10 6 -18 12 -18 6 0 9 7 6 14 -4 11 -1 13 10 9 12 -5
14 -3 8 7 -5 8 -3 11 6 8 8 -3 24 -1 37 3 38 14 24 2 -35 -31 -32 -18 -66 -42
-75 -54 -17 -21 -18 -20 -18 30 0 42 5 64 15 64 1 0 0 -11 -3 -25z m3468 15
c0 -19 -35 -80 -47 -80 -15 0 -5 32 14 43 7 4 13 17 13 27 0 11 5 20 10 20 6
0 10 -4 10 -10z m-1868 -37 c15 -19 2 -29 -17 -13 -12 10 -15 10 -15 -2 0 -10
-9 -15 -27 -14 -16 1 -34 -3 -40 -8 -8 -5 -13 -4 -13 2 0 6 9 14 20 17 11 3
20 13 20 21 0 18 56 16 72 -3z m1691 -50 c-10 -26 -22 7 -15 42 l5 30 8 -28
c4 -16 5 -36 2 -44z m-1580 -5 c-10 -11 -16 -22 -15 -25 2 -3 1 -7 -2 -10 -10
-10 -7 15 5 41 7 14 16 23 21 20 5 -3 1 -15 -9 -26z m-1478 12 c3 -5 1 -10 -4
-10 -6 0 -11 5 -11 10 0 6 2 10 4 10 3 0 8 -4 11 -10z m464 -7 c36 -21 38 -29
11 -36 -11 -3 -20 -2 -20 2 0 4 -11 14 -25 21 -14 7 -25 17 -25 22 0 13 26 9
59 -9z m-327 -32 c29 -18 49 -26 55 -20 5 5 17 7 26 3 20 -7 23 -34 5 -34 -9
0 -8 -3 2 -10 23 -15 5 -22 -23 -9 -15 7 -24 16 -21 21 4 6 -7 9 -22 8 -16 -1
-36 -2 -44 -1 -13 1 -13 3 0 10 8 6 18 7 24 4 5 -3 6 -1 2 5 -4 7 -20 12 -37
12 -17 0 -28 5 -26 12 1 7 -13 15 -33 19 l-35 6 41 2 c29 1 53 -7 86 -28z
m1138 19 c0 -5 -4 -10 -10 -10 -5 0 -10 5 -10 10 0 6 5 10 10 10 6 0 10 -4 10
-10z m225 -30 c-7 -22 5 -26 22 -9 6 6 19 9 29 7 15 -3 14 -5 -8 -20 -21 -14
-29 -15 -42 -5 -11 8 -15 19 -10 30 9 24 17 21 9 -3z m109 -31 c9 -17 14 -35
11 -38 -2 -4 9 -15 26 -25 16 -9 29 -21 29 -27 0 -13 -12 -11 -38 7 -13 9 -26
13 -29 10 -3 -3 -12 2 -20 12 -14 16 -14 16 -9 0 3 -10 0 -20 -6 -24 -7 -5 -8
-2 -3 6 6 10 3 12 -12 8 -16 -4 -19 -1 -15 18 2 13 10 24 18 24 7 0 18 9 24
20 8 14 8 20 0 20 -6 0 -8 5 -5 10 9 15 12 13 29 -21z m-1020 -8 c14 -15 13
-18 -6 -30 -19 -12 -20 -11 -16 7 4 14 0 22 -13 25 -11 3 -19 10 -19 15 0 14
36 3 54 -17z m872 7 c1 -10 -2 -18 -8 -18 -5 0 -6 -10 -3 -22 5 -18 4 -20 -4
-8 -6 8 -11 11 -11 5 0 -5 -5 -3 -10 5 -5 8 -10 10 -10 5 0 -6 -11 -11 -25
-11 -15 0 -25 6 -25 14 0 10 7 12 25 8 14 -4 25 -2 25 3 0 6 7 8 15 5 10 -4
15 0 15 11 0 10 -5 15 -13 12 -8 -3 -20 -1 -28 4 -10 7 -4 9 20 7 24 -2 35 -8
37 -20z m-137 -16 c-7 -3 -22 -9 -31 -14 -12 -5 -18 -5 -18 2 0 5 7 10 15 10
8 0 15 4 15 10 0 5 8 6 17 3 14 -5 14 -8 2 -11z m331 8 c0 -5 -7 -7 -15 -4 -8
4 -15 8 -15 10 0 2 7 4 15 4 8 0 15 -4 15 -10z m-1341 -20 c-17 -11 -3 -40 20
-40 11 0 25 -8 30 -17 8 -14 10 -14 11 -3 0 11 3 11 12 2 10 -10 10 -15 -2
-22 -11 -7 -18 -3 -27 13 -10 17 -12 18 -13 5 0 -9 -5 -20 -12 -24 -7 -5 -9
-1 -6 13 6 22 -17 28 -42 9 -12 -9 -13 -8 -4 4 6 8 11 29 9 46 -1 26 1 30 18
26 13 -3 15 -7 6 -12z m1176 0 c-10 -11 -20 -18 -23 -15 -7 6 18 35 31 35 5 0
2 -9 -8 -20z m55 13 c-1 -18 -18 -35 -24 -24 -4 6 -4 16 -1 21 7 12 25 13 25
3z m-1270 -13 c0 -5 -5 -10 -11 -10 -5 0 -7 -4 -4 -10 3 -5 -1 -10 -9 -10 -19
0 -21 11 -4 28 15 15 28 16 28 2z m-500 -41 c0 -23 -13 -25 -31 -2 -12 15 -12
16 3 10 13 -4 15 -2 11 10 -4 11 -2 14 5 9 7 -4 12 -16 12 -27z m635 12 c3 -5
1 -12 -5 -16 -5 -3 -10 1 -10 9 0 18 6 21 15 7z m1495 -6 c-7 -8 -17 -15 -22
-15 -6 0 -5 7 2 15 7 8 17 15 22 15 6 0 5 -7 -2 -15z m-758 -15 c-2 -8 3 -10
13 -7 8 4 15 2 15 -3 0 -6 -11 -10 -25 -10 -19 0 -25 5 -25 21 0 12 5 19 13
16 6 -2 11 -10 9 -17z m77 8 c6 11 10 10 15 -4 4 -10 4 -15 0 -11 -4 4 -22 -4
-40 -18 -35 -27 -54 -32 -54 -14 0 6 6 9 14 6 10 -4 18 5 26 26 9 26 13 29 20
17 8 -12 12 -13 19 -2z m541 -8 c0 -5 -7 -10 -16 -10 -8 0 -12 5 -9 10 3 6 10
10 16 10 5 0 9 -4 9 -10z m56 1 c5 -5 23 -11 39 -14 17 -2 5 -4 -25 -4 -30 -1
-46 2 -36 4 15 4 16 7 5 14 -8 5 -9 9 -3 9 5 0 14 -4 20 -9z m689 -11 c-3 -5
-21 -9 -38 -9 l-32 1 30 8 c43 11 47 11 40 0z m-2286 -36 c-18 -19 -19 -24 -6
-24 9 0 19 5 22 10 3 6 10 10 14 10 15 0 48 -35 44 -47 -2 -6 3 -24 11 -40
l15 -28 1 28 c0 15 5 27 11 27 6 0 8 9 4 20 -3 11 -4 29 0 39 5 16 9 17 31 7
l25 -11 -4 -125 c-2 -69 -7 -134 -10 -145 -4 -11 2 -2 13 20 l19 40 1 -45 c0
-26 -4 -40 -8 -33 -5 9 -12 1 -20 -21 -7 -19 -21 -37 -30 -39 -12 -3 -10 -5 6
-6 15 -1 26 7 33 22 7 17 8 11 5 -28 -3 -27 -7 -60 -10 -72 -5 -24 -37 -72
-48 -73 -3 0 -4 -9 -1 -20 7 -28 -19 -35 -58 -16 -18 9 -39 16 -48 15 -12 0
-11 -3 4 -9 17 -7 17 -9 3 -9 -10 -1 -22 -11 -29 -22 -6 -12 -7 -19 -2 -16 5
3 15 2 23 -4 13 -7 13 -9 0 -9 -8 0 -32 3 -52 6 -33 6 -36 9 -27 25 5 11 19
19 30 19 11 0 19 5 17 12 -4 12 -88 37 -130 38 -25 0 -46 15 -35 26 4 5 126
-12 158 -22 23 -7 17 38 -7 47 -10 4 -51 8 -89 8 -72 1 -95 11 -95 40 0 14 14
16 90 13 l90 -3 0 188 c0 179 1 189 22 215 13 14 26 24 31 21 5 -3 -2 -16 -14
-29z m188 14 c-3 -8 -6 -5 -6 6 -1 11 2 17 5 13 3 -3 4 -12 1 -19z m690 16
c-3 -3 -12 -4 -19 -1 -8 3 -5 6 6 6 11 1 17 -2 13 -5z m1248 -4 c3 -5 2 -10
-4 -10 -5 0 -13 5 -16 10 -3 6 -2 10 4 10 5 0 13 -4 16 -10z m-1294 -51 c-16
-18 -24 -20 -33 -11 -9 9 -8 12 6 12 12 0 16 5 13 14 -7 17 13 28 27 16 4 -5
-1 -19 -13 -31z m784 -11 c-14 -29 -27 -72 -31 -96 -4 -30 -9 -40 -15 -31 -7
11 -9 10 -9 -3 0 -9 5 -20 10 -23 6 -4 10 -73 10 -176 l0 -169 114 0 c82 0
116 -3 119 -12 4 -10 7 -10 18 0 16 15 75 16 84 1 4 -6 -1 -17 -11 -25 -15
-11 -55 -14 -194 -13 l-174 2 -33 -43 c-39 -51 -40 -60 -10 -68 20 -6 20 -7
-8 -13 -16 -4 -47 -7 -68 -8 l-39 -1 6 121 c5 97 9 124 22 134 13 9 14 16 7
30 -11 19 -6 55 7 55 5 0 10 -6 13 -12 2 -7 8 -10 12 -5 5 4 4 12 -2 18 -8 8
-7 21 0 46 8 27 8 36 -2 43 -18 11 -5 30 21 30 12 0 18 3 14 7 -3 4 4 13 16
20 l23 12 -27 1 c-18 0 -28 5 -28 15 0 8 5 15 11 15 5 0 7 5 4 11 -4 6 1 17
11 24 25 19 10 19 -27 -1 -17 -8 -33 -13 -37 -10 -7 8 28 35 46 36 6 0 12 7
12 15 0 7 8 19 18 24 9 6 13 11 7 11 -5 0 -4 4 3 8 10 7 10 15 2 36 -8 23 -7
28 13 36 12 5 43 9 69 9 l47 1 -24 -52z m-2125 38 c0 -3 -4 -8 -10 -11 -5 -3
-10 -1 -10 4 0 6 5 11 10 11 6 0 10 -2 10 -4z m70 -16 c0 -13 -6 -20 -17 -19
-11 0 -13 3 -5 6 6 2 12 11 12 19 0 8 2 14 5 14 3 0 5 -9 5 -20z m2630 15 c0
-10 -41 -25 -52 -19 -8 5 -5 10 8 15 22 9 44 11 44 4z m-2003 -47 c-3 -7 -5
-2 -5 12 0 14 2 19 5 13 2 -7 2 -19 0 -25z m1317 7 c3 -9 0 -15 -9 -15 -8 0
-15 -4 -15 -10 0 -5 -7 -10 -15 -10 -17 0 -17 2 -9 24 3 8 12 12 21 9 11 -4
14 -2 9 5 -4 7 -3 12 2 12 6 0 12 -7 16 -15z m616 0 c-7 -8 -20 -15 -29 -15
-11 1 -8 5 9 15 32 18 35 18 20 0z m225 -5 c3 -6 -1 -7 -9 -4 -18 7 -21 14 -7
14 6 0 13 -4 16 -10z m-1522 -10 c10 0 16 -4 12 -10 -3 -5 -12 -7 -19 -4 -8 3
-17 1 -21 -5 -11 -19 -34 -12 -32 10 1 15 6 19 22 15 11 -3 28 -6 38 -6z
m1413 -23 c8 -4 14 -16 14 -25 0 -13 -2 -14 -9 -4 -4 8 -12 13 -17 13 -5 -1
-10 11 -11 26 -1 15 0 21 4 13 3 -8 12 -19 19 -23z m-36 -2 c0 -8 -6 -15 -14
-15 -20 0 -29 17 -14 23 22 9 28 7 28 -8z m-2013 -17 c-3 -8 -6 -5 -6 6 -1 11
2 17 5 13 3 -3 4 -12 1 -19z m610 -10 c2 -18 0 -20 -7 -8 -7 12 -10 9 -10 -12
0 -27 -1 -27 -18 -10 -12 11 -14 20 -8 24 7 5 7 8 1 9 -5 0 1 5 15 9 14 4 25
8 25 9 1 1 2 -9 2 -21z m74 -9 c-5 -13 -10 -19 -10 -12 -1 15 10 45 15 40 3
-2 0 -15 -5 -28z m599 11 c0 -5 -2 -10 -4 -10 -3 0 -8 5 -11 10 -3 6 -1 10 4
10 6 0 11 -4 11 -10z m729 -32 c-1 -24 -3 -27 -6 -10 -2 12 -9 20 -14 17 -5
-4 -9 -2 -9 4 0 8 9 14 28 20 1 1 1 -14 1 -31z m-2012 -40 c-2 -13 -4 -5 -4
17 -1 22 1 32 4 23 2 -10 2 -28 0 -40z m2073 36 c0 -2 -7 -4 -15 -4 -8 0 -15
4 -15 10 0 5 7 7 15 4 8 -4 15 -8 15 -10z m-43 -26 c-3 -7 -5 -2 -5 12 0 14 2
19 5 13 2 -7 2 -19 0 -25z m-1449 -1 c6 3 12 0 12 -6 0 -6 -9 -11 -20 -11 -11
0 -20 2 -20 4 0 2 -3 13 -6 23 -5 16 -4 16 8 2 7 -9 19 -14 26 -12z m85 -196
c-4 -207 -4 -220 -10 -199 -3 13 -13 8 -47 -25 -50 -49 -141 -101 -161 -93 -9
3 -12 0 -8 -10 6 -17 15 -18 31 -2 6 6 15 9 18 5 4 -3 -6 -12 -22 -19 -16 -7
-32 -17 -35 -21 -4 -5 -7 4 -7 19 0 16 8 37 17 48 9 10 14 21 12 25 -2 3 6 10
18 16 11 5 21 13 21 17 0 4 13 14 30 23 17 9 27 21 24 29 -3 8 4 16 18 20 36
9 46 7 51 -11 3 -10 4 -1 2 20 -3 51 -25 72 -75 72 -28 0 -35 2 -24 8 9 5 31
7 50 4 36 -6 54 7 35 26 -8 8 -11 7 -11 -3 0 -12 -2 -12 -12 -1 -11 11 -10 14
0 18 6 3 10 8 7 12 -2 5 0 36 7 71 6 38 14 57 18 49 6 -8 12 1 20 28 7 22 17
40 24 40 8 0 10 -47 9 -166z m1281 144 c-9 -14 -19 -23 -22 -20 -5 4 26 45 35
45 2 0 -4 -11 -13 -25z m103 -1 c-3 -3 -12 -4 -19 -1 -8 3 -5 6 6 6 11 1 17
-2 13 -5z m-797 -19 c-7 -9 -15 -13 -17 -11 -7 7 7 26 19 26 6 0 6 -6 -2 -15z
m-1945 -15 c11 -5 16 -9 11 -9 -5 -1 -3 -8 4 -16 7 -9 20 -13 29 -10 12 5 11
2 -3 -14 -15 -17 -16 -20 -2 -28 8 -4 19 -17 23 -28 15 -36 48 -85 56 -85 5 0
23 10 39 22 17 12 29 16 27 9 -3 -7 -17 -20 -31 -29 -25 -15 -34 -15 -114 1
-99 19 -117 30 -110 66 3 14 8 50 11 79 7 55 16 61 60 42z m2615 -24 c0 -3 -4
-8 -10 -11 -5 -3 -10 -1 -10 4 0 6 5 11 10 11 6 0 10 -2 10 -4z m-1353 -68
c-3 -8 -6 -5 -6 6 -1 11 2 17 5 13 3 -3 4 -12 1 -19z m1373 6 c0 -2 -7 -4 -15
-4 -8 0 -15 4 -15 10 0 5 7 7 15 4 8 -4 15 -8 15 -10z m75 -22 c-3 -3 -11 0
-18 7 -9 10 -8 11 6 5 10 -3 15 -9 12 -12z m-1895 -67 c0 -12 -19 -12 -23 0
-4 9 -1 12 9 8 7 -3 14 -7 14 -8z m2040 5 c0 -5 -2 -10 -4 -10 -3 0 -8 5 -11
10 -3 6 -1 10 4 10 6 0 11 -4 11 -10z m-20 -14 c0 -2 -7 -7 -16 -10 -8 -3 -12
-2 -9 4 6 10 25 14 25 6z m-5 -36 c3 -5 1 -10 -4 -10 -6 0 -11 5 -11 10 0 6 2
10 4 10 3 0 8 -4 11 -10z m-2820 -50 c5 0 3 5 -5 11 -12 9 -12 10 3 5 10 -3
31 -6 45 -7 l27 -1 -25 -8 c-26 -8 -23 -10 23 -14 16 -1 31 2 33 6 3 5 14 3
24 -2 22 -12 41 -10 53 5 6 6 10 6 14 -3 2 -7 14 -17 26 -23 18 -9 20 -9 10 2
-7 7 -13 16 -13 21 0 12 34 -4 48 -24 7 -10 17 -16 22 -13 5 3 12 0 15 -6 5
-6 20 -8 40 -5 22 5 36 2 45 -9 11 -13 9 -15 -13 -15 -28 0 -45 -16 -25 -23 7
-2 -4 -8 -24 -12 -43 -8 -45 -12 -20 -32 16 -13 15 -14 -6 -10 -12 3 -20 1
-17 -3 9 -14 -6 -39 -19 -34 -7 3 -18 -2 -25 -10 -12 -15 -45 -11 -36 4 3 4
-2 10 -10 14 -23 9 -18 23 12 30 23 6 24 9 12 22 -15 14 -45 9 -108 -20 -19
-9 -20 -12 -7 -14 9 -2 14 -7 11 -12 -3 -5 -12 -7 -20 -3 -8 3 -15 0 -15 -7 0
-6 3 -9 8 -7 4 3 16 1 27 -4 19 -7 19 -8 -3 -8 -12 -1 -31 -6 -41 -13 -21 -13
-51 -5 -51 14 0 10 3 9 9 -1 5 -8 16 -11 26 -8 19 8 11 27 -12 27 -9 0 -13 6
-10 14 4 10 -1 14 -16 13 -71 -3 -85 2 -90 36 -5 39 0 55 21 60 12 3 11 5 -5
6 -18 1 -21 6 -18 29 2 15 4 30 4 34 1 10 45 15 56 6 5 -4 14 -8 20 -8z m2898
-11 c-4 -13 -9 -17 -16 -10 -12 12 -1 45 12 37 5 -3 7 -15 4 -27z m-63 -13 c0
-5 -7 -3 -15 4 -8 7 -12 17 -9 22 7 10 24 -9 24 -26z m27 27 c-4 -3 -2 -13 5
-20 9 -11 9 -16 -3 -23 -11 -7 -11 -12 -1 -22 15 -15 16 -28 1 -28 -5 0 -8 4
-4 9 3 5 1 12 -4 15 -5 3 -7 20 -6 38 3 39 3 38 12 38 3 0 3 -3 0 -7z m76 -20
c-3 -7 -9 -13 -14 -13 -5 0 -9 6 -9 13 0 8 6 14 14 14 8 0 12 -6 9 -14z m44
11 c-3 -3 -12 -4 -19 -1 -8 3 -5 6 6 6 11 1 17 -2 13 -5z m68 -4 c-3 -5 -12
-10 -18 -10 -7 0 -6 4 3 10 19 12 23 12 15 0z m-2692 -15 c-3 -9 -8 -14 -10
-11 -3 3 -2 9 2 15 9 16 15 13 8 -4z m272 -25 c3 -5 -1 -10 -9 -10 -9 0 -16 5
-16 10 0 6 4 10 9 10 6 0 13 -4 16 -10z m2282 4 c-3 -3 -12 -4 -19 -1 -8 3 -5
6 6 6 11 1 17 -2 13 -5z m-2247 -20 c0 -8 -5 -12 -10 -9 -6 4 -8 11 -5 16 9
14 15 11 15 -7z m2100 6 c0 -5 -2 -10 -4 -10 -3 0 -8 5 -11 10 -3 6 -1 10 4
10 6 0 11 -4 11 -10z m46 -9 c-4 -5 -2 -11 3 -13 5 -1 3 -9 -5 -16 -12 -11
-13 -9 -10 10 6 30 5 28 12 28 3 0 3 -4 0 -9z m-2318 -36 c-2 -1 -19 -5 -39
-9 -26 -4 -38 -3 -42 6 -3 10 7 12 40 9 24 -2 43 -4 41 -6z m1365 -37 c6 -41
4 -48 -11 -49 -10 0 -12 -3 -4 -6 24 -10 11 -23 -23 -23 -32 0 -35 3 -35 28 0
23 56 110 65 100 1 -2 5 -24 8 -50z m-1463 38 c0 -2 -7 -6 -15 -10 -8 -3 -15
-1 -15 4 0 6 7 10 15 10 8 0 15 -2 15 -4z m2060 -6 c0 -5 -7 -10 -16 -10 -8 0
-12 5 -9 10 3 6 10 10 16 10 5 0 9 -4 9 -10z m-139 -32 c11 -21 11 -22 -4 -9
-10 7 -17 17 -17 22 0 15 9 10 21 -13z m277 -3 c-3 -3 -9 2 -12 12 -6 14 -5
15 5 6 7 -7 10 -15 7 -18z m-61 -17 c-3 -8 -6 -5 -6 6 -1 11 2 17 5 13 3 -3 4
-12 1 -19z m-370 -10 c-3 -8 -6 -5 -6 6 -1 11 2 17 5 13 3 -3 4 -12 1 -19z
m51 10 c-7 -19 -38 -22 -38 -4 0 10 9 16 21 16 12 0 19 -5 17 -12z m72 -9 c0
-4 -9 -13 -19 -18 -15 -8 -20 -7 -23 7 -4 12 2 17 19 18 12 1 23 -2 23 -7z
m-2310 -24 c10 -12 9 -15 -4 -15 -10 0 -24 7 -32 15 -14 13 -13 15 4 15 11 0
25 -7 32 -15z m2333 -10 c-18 -13 -33 -11 -33 4 0 5 11 9 25 9 23 0 24 -2 8
-13z m-451 -65 c3 -31 0 -40 -12 -41 -9 0 -10 -3 -3 -5 8 -4 9 -14 3 -35 -5
-17 -5 -27 0 -24 5 3 9 -26 9 -65 l0 -70 -67 0 c-74 1 -116 17 -103 39 5 7 14
10 20 7 6 -4 11 -2 11 4 0 13 -63 3 -68 -10 -2 -4 -11 -6 -22 -3 -11 3 -16 11
-13 19 4 10 26 14 89 14 l84 0 2 48 c0 26 0 73 0 105 l-2 57 34 0 c32 0 34 -2
38 -40z m494 1 c6 -1 11 -14 11 -30 0 -22 -3 -26 -12 -17 -7 6 -10 18 -7 26 3
9 -2 6 -11 -5 -9 -11 -17 -15 -17 -7 0 7 -14 12 -36 12 -21 0 -33 -4 -29 -10
3 -6 -4 -10 -17 -10 -18 0 -20 2 -8 10 11 7 5 10 -25 10 -22 0 -51 3 -65 7
l-25 7 25 7 c20 5 162 5 216 0z m-2366 -11 c0 -5 -4 -10 -10 -10 -5 0 -10 5
-10 10 0 6 5 10 10 10 6 0 10 -4 10 -10z m2350 -50 c12 -8 9 -10 -12 -10 -16
0 -28 5 -28 10 0 13 20 13 40 0z m380 -20 c0 -5 -4 -10 -10 -10 -5 0 -10 5
-10 10 0 6 5 10 10 10 6 0 10 -4 10 -10z m-220 -14 c0 -11 -19 -15 -25 -6 -3
5 1 10 9 10 9 0 16 -2 16 -4z m-570 -32 c0 -2 -7 -4 -15 -4 -8 0 -15 4 -15 10
0 5 7 7 15 4 8 -4 15 -8 15 -10z m450 -61 c-7 -23 -8 -18 -8 27 0 45 1 50 8
28 5 -16 5 -40 0 -55z m-975 11 c-19 -14 -19 -16 -2 -25 34 -19 16 -29 -50
-28 -38 1 -58 4 -45 6 19 4 20 6 8 19 -8 8 -19 14 -25 14 -18 0 -12 18 7 23 9
3 42 5 72 6 51 0 54 -1 35 -15z m103 4 c7 -7 12 -20 12 -30 0 -16 -3 -17 -21
-8 -15 9 -24 8 -35 -1 -11 -9 -14 -8 -14 5 0 10 8 16 21 16 15 0 19 5 15 15
-7 18 5 20 22 3z m687 1 c11 -17 -1 -21 -15 -4 -8 9 -8 15 -2 15 6 0 14 -5 17
-11z m-615 -23 c0 -3 -4 -8 -10 -11 -5 -3 -10 -1 -10 4 0 6 5 11 10 11 6 0 10
-2 10 -4z m603 -16 c9 -11 17 -23 17 -26 0 -3 -62 -4 -137 -2 -134 3 -138 4
-141 26 -3 22 -2 22 120 22 111 0 125 -2 141 -20z m-909 -5 c3 -8 1 -15 -4
-15 -6 0 -10 7 -10 15 0 8 2 15 4 15 2 0 6 -7 10 -15z m1000 6 c3 -5 -5 -11
-19 -13 -26 -5 -35 6 -12 15 19 8 25 8 31 -2z m-644 -5 c0 -2 -11 -6 -25 -8
-13 -3 -22 -1 -19 3 5 9 44 13 44 5z m-132 -39 c2 -12 -3 -17 -17 -17 -12 0
-21 6 -21 13 0 31 32 34 38 4z m-118 -6 c0 -5 3 -16 6 -25 5 -14 -4 -16 -60
-16 -37 0 -66 4 -66 10 0 6 7 10 15 10 8 0 14 3 14 8 -1 4 -1 10 0 15 2 10 91
9 91 -2z m790 -1 c0 -5 -5 -10 -11 -10 -5 0 -7 5 -4 10 3 6 8 10 11 10 2 0 4
-4 4 -10z m-910 -4 c0 -3 -4 -8 -10 -11 -5 -3 -10 -1 -10 4 0 6 5 11 10 11 6
0 10 -2 10 -4z m150 -56 c0 -5 7 -10 15 -10 22 0 18 -31 -5 -37 -29 -8 -25
-23 6 -23 15 0 23 -4 18 -11 -3 -6 -16 -8 -27 -5 -12 3 -27 0 -35 -6 -18 -15
-42 -19 -42 -7 0 5 -11 2 -25 -7 -24 -16 -25 -16 -25 10 0 24 3 26 44 26 56 0
73 20 19 21 -21 1 -43 1 -49 0 -6 -1 -9 11 -6 29 4 29 6 30 58 30 30 0 54 -4
54 -10z m375 0 c17 -7 16 -9 -10 -9 -16 0 -37 4 -45 9 -12 8 -10 10 10 9 14 0
34 -4 45 -9z m-535 -10 c0 -5 -4 -10 -10 -10 -5 0 -10 5 -10 10 0 6 5 10 10
10 6 0 10 -4 10 -10z m30 0 c0 -5 -4 -10 -10 -10 -5 0 -10 5 -10 10 0 6 5 10
10 10 6 0 10 -4 10 -10z m673 -10 c37 -7 67 -16 67 -20 0 -9 -99 6 -165 25
-49 14 -49 14 -10 11 22 -2 70 -9 108 -16z m-476 -16 c-3 -3 -12 -4 -19 -1 -8
3 -5 6 6 6 11 1 17 -2 13 -5z m686 -11 c-7 -2 -21 -2 -30 0 -10 3 -4 5 12 5
17 0 24 -2 18 -5z m-672 -22 c-9 -6 -10 -11 -2 -15 6 -4 9 -12 5 -17 -8 -13
-34 8 -34 27 0 8 10 14 23 14 16 0 18 -3 8 -9z m84 -1 c3 -5 1 -10 -4 -10 -6
0 -11 5 -11 10 0 6 2 10 4 10 3 0 8 -4 11 -10z m678 3 c-7 -2 -19 -2 -25 0 -7
3 -2 5 12 5 14 0 19 -2 13 -5z m-524 -64 c-8 -5 -31 -9 -51 -9 -26 0 -44 -7
-58 -22 -16 -18 -20 -19 -14 -5 4 12 2 17 -7 15 -9 -2 -13 4 -11 17 1 11 4 29
5 41 l2 21 74 -25 c50 -17 69 -27 60 -33z m994 -6 c-7 -2 -19 -2 -25 0 -7 3
-2 5 12 5 14 0 19 -2 13 -5z m-1053 -17 c0 -3 -4 -8 -10 -11 -5 -3 -10 -1 -10
4 0 6 5 11 10 11 6 0 10 -2 10 -4z m331 -36 c73 -17 134 -32 136 -34 6 -5 -81
-15 -137 -15 -33 -1 -41 2 -30 9 8 5 10 10 5 10 -6 0 -21 -7 -34 -16 -17 -12
-26 -13 -34 -5 -6 6 -19 11 -29 11 -10 0 -18 5 -18 11 0 6 -6 9 -14 6 -8 -3
-17 -3 -21 1 -7 7 -95 31 -95 25 0 -1 9 -12 20 -23 11 -11 20 -15 20 -8 0 6 3
9 6 5 3 -3 1 -13 -4 -23 -9 -16 -10 -16 -16 4 -4 11 -20 25 -36 31 -38 13 -38
28 -2 34 77 12 159 5 283 -23z m427 -95 c4 -4 -15 -5 -43 -1 -31 3 -45 2 -36
-3 11 -7 10 -10 -5 -13 -11 -3 -1 -8 25 -12 29 -6 39 -11 30 -16 -7 -5 5 -6
28 -3 25 3 43 1 47 -6 4 -6 17 -11 29 -10 21 0 21 1 2 9 -14 6 0 8 45 8 36 -1
52 -3 35 -5 -16 -3 -32 -9 -35 -14 -3 -4 -26 -11 -50 -14 -38 -4 -66 -11 -158
-41 -7 -2 -10 1 -7 6 3 6 1 10 -4 10 -6 0 -11 -4 -11 -10 0 -5 -7 -10 -15 -10
-8 0 -15 5 -15 10 0 6 -11 10 -24 10 -42 0 -86 21 -86 41 0 10 7 19 15 19 8 0
15 4 15 10 0 5 -7 7 -15 4 -8 -4 -15 -1 -15 4 0 6 8 13 18 15 9 3 -6 5 -35 6
-28 0 -54 5 -58 10 -3 6 16 9 45 8 27 -1 50 1 50 5 0 20 208 4 228 -17z m-381
19 c-3 -3 -12 -4 -19 -1 -8 3 -5 6 6 6 11 1 17 -2 13 -5z m-82 -14 c3 -5 1
-10 -4 -10 -6 0 -11 5 -11 10 0 6 2 10 4 10 3 0 8 -4 11 -10z m115 0 c0 -5 -4
-10 -10 -10 -5 0 -10 5 -10 10 0 6 5 10 10 10 6 0 10 -4 10 -10z m-1182 -17
c-15 -2 -42 -2 -60 0 -18 2 -6 4 27 4 33 0 48 -2 33 -4z m1522 -12 c0 -5 -9
-7 -20 -4 -11 3 -20 7 -20 9 0 2 9 4 20 4 11 0 20 -4 20 -9z m88 2 c-10 -2
-26 -2 -35 0 -10 3 -2 5 17 5 19 0 27 -2 18 -5z m228 -68 c1 -9 -4 -11 -14 -7
-10 4 -12 7 -4 10 7 2 9 9 5 15 -3 7 -2 8 2 4 5 -4 10 -14 11 -22z m34 5 c0
-5 -5 -10 -11 -10 -5 0 -7 5 -4 10 3 6 8 10 11 10 2 0 4 -4 4 -10z m-157 -17
c-25 -9 -13 -22 25 -26 34 -3 33 -4 -10 -5 -34 -1 -47 2 -45 11 2 14 18 27 32
26 6 0 4 -3 -2 -6z m300 -20 c-7 -2 -21 -2 -30 0 -10 3 -4 5 12 5 17 0 24 -2
18 -5z m-356 -14 c-14 -8 -22 -8 -30 0 -8 8 -3 11 19 11 25 -1 27 -2 11 -11z
m-257 -10 c0 -5 -24 -9 -52 -8 -35 1 -45 3 -30 7 36 10 82 10 82 1z m90 0
c-28 -5 -48 -5 -54 1 -7 7 9 10 45 9 l54 -1 -45 -9z m87 5 c-3 -3 -12 -4 -19
-1 -8 3 -5 6 6 6 11 1 17 -2 13 -5z"/>
<path d="M775 2030 c-3 -6 0 -10 7 -10 9 0 10 -2 2 -8 -9 -5 -8 -10 1 -19 10
-9 14 -8 17 5 6 20 -18 47 -27 32z"/>
<path d="M796 1941 c-4 -7 -5 -15 -2 -18 9 -9 19 4 14 18 -4 11 -6 11 -12 0z"/>
<path d="M778 1593 c7 -3 16 -2 19 1 4 3 -2 6 -13 5 -11 0 -14 -3 -6 -6z"/>
<path d="M750 1560 c0 -5 5 -10 10 -10 6 0 10 5 10 10 0 6 -4 10 -10 10 -5 0
-10 -4 -10 -10z"/>
<path d="M2185 2040 c-16 -4 -23 -8 -14 -9 9 0 19 -8 23 -16 3 -9 17 -14 33
-14 24 2 25 2 6 6 -27 5 -31 30 -5 36 11 3 12 5 2 5 -8 0 -28 -4 -45 -8z"/>
<path d="M2131 1754 c0 -11 3 -14 6 -6 3 7 2 16 -1 19 -3 4 -6 -2 -5 -13z"/>
<path d="M1470 1569 c0 -19 4 -41 9 -48 6 -10 8 1 4 30 -7 55 -13 63 -13 18z"/>
<path d="M190 1646 c0 -8 5 -18 10 -21 6 -3 10 1 10 9 0 8 -4 18 -10 21 -5 3
-10 -1 -10 -9z"/>
<path d="M185 1451 c11 -5 16 -10 10 -11 -13 -1 25 -30 39 -30 6 0 4 6 -5 13
-9 7 -16 17 -15 22 1 6 -10 11 -24 12 -23 2 -23 2 -5 -6z"/>
<path d="M128 1443 c7 -3 16 -2 19 1 4 3 -2 6 -13 5 -11 0 -14 -3 -6 -6z"/>
<path d="M80 1420 c0 -5 7 -10 16 -10 8 0 12 5 9 10 -3 6 -10 10 -16 10 -5 0
-9 -4 -9 -10z"/>
<path d="M160 1400 c0 -7 -13 -9 -37 -4 -21 4 -34 3 -30 -2 4 -4 19 -10 33
-11 30 -4 62 11 45 21 -6 4 -11 2 -11 -4z"/>
<path d="M220 1386 c0 -2 7 -6 15 -10 8 -3 15 -1 15 4 0 6 -7 10 -15 10 -8 0
-15 -2 -15 -4z"/>
<path d="M2070 709 c0 -5 5 -7 10 -4 6 3 10 8 10 11 0 2 -4 4 -10 4 -5 0 -10
-5 -10 -11z"/>
<path d="M2386 626 c3 -8 12 -12 21 -9 12 5 12 7 1 14 -20 13 -28 11 -22 -5z"/>
<path d="M2415 603 c-11 -3 -24 -9 -30 -14 -12 -12 56 0 70 12 10 10 -6 10
-40 2z"/>
<path d="M2488 603 c7 -3 16 -2 19 1 4 3 -2 6 -13 5 -11 0 -14 -3 -6 -6z"/>
<path d="M2468 583 c6 -2 18 -2 25 0 6 3 1 5 -13 5 -14 0 -19 -2 -12 -5z"/>
<path d="M2415 571 c-10 -17 12 -21 25 -6 10 12 10 15 -3 15 -9 0 -18 -4 -22
-9z"/>
<path d="M2508 543 c7 -3 16 -2 19 1 4 3 -2 6 -13 5 -11 0 -14 -3 -6 -6z"/>
<path d="M1950 2880 c0 -5 5 -10 11 -10 5 0 7 5 4 10 -3 6 -8 10 -11 10 -2 0
-4 -4 -4 -10z"/>
<path d="M2053 2883 c15 -2 37 -2 50 0 12 2 0 4 -28 4 -27 0 -38 -2 -22 -4z"/>
<path d="M2130 2870 c0 -17 3 -18 26 -9 22 8 30 6 46 -11 25 -27 28 -25 25 10
-2 29 -4 30 -49 30 -41 0 -48 -3 -48 -20z"/>
<path d="M961 2854 c0 -11 3 -14 6 -6 3 7 2 16 -1 19 -3 4 -6 -2 -5 -13z"/>
<path d="M550 2792 c0 -14 8 -26 23 -31 28 -11 32 -7 18 16 -6 10 -11 14 -11
9 0 -6 -7 -1 -15 10 -14 18 -14 18 -15 -4z"/>
</g>
</svg>
